<?xml version="1.0" encoding="utf-8"?>
<!-- Generator: Adobe Illustrator 19.0.0, SVG Export Plug-In . SVG Version: 6.00 Build 0)  -->
<svg version="1.1" id="Layer_1" xmlns="http://www.w3.org/2000/svg" xmlns:xlink="http://www.w3.org/1999/xlink" x="0px" y="0px"
	 viewBox="0 0 172.2 42.1" style="enable-background:new 0 0 172.2 42.1;" xml:space="preserve">
<style type="text/css">
	.st0{fill:#FFFFFF;}
</style>
<g id="XMLID_287_">
	<g id="XMLID_25_">
		<polygon id="XMLID_27_" class="st0" points="16.8,26.4 17.3,32.3 28,26.3 28,15.3 18,9.8 8,15.3 8,37 14,39.9 14,18.3 18,15.7 
			22,18.3 22,23.3 		"/>
		<polygon id="XMLID_26_" class="st0" points="0,10.4 0,32.1 5,35 5,13.3 18,5.9 31,13.3 31,28.2 17.2,36.2 17.2,42 17.3,42.1 
			36,31.2 36,10.4 18,0 		"/>
	</g>
</g>
<g id="XMLID_14_">
	<path id="XMLID_15_" class="st0" d="M57.5,16.3c0.7,0.6,1,1.4,1,2.6c0,1.2-0.3,2.1-1,2.6s-1.8,0.8-3.2,0.8h-1.7v2.9h-1.7v-9.8h3.4
		C55.7,15.4,56.8,15.7,57.5,16.3z M56.3,20.3c0.3-0.4,0.5-0.9,0.5-1.5c0-0.7-0.2-1.2-0.6-1.4c-0.4-0.3-1.1-0.4-2-0.4h-1.7v3.9h1.9
		C55.3,20.9,56,20.7,56.3,20.3z"/>
	<path id="XMLID_18_" class="st0" d="M71.2,18.6c0,1.6-0.7,2.6-2.1,3.1l2.6,3.6h-2.1l-2.3-3.3H65v3.3h-1.7v-9.8H67
		c1.5,0,2.6,0.3,3.2,0.8C70.9,16.7,71.2,17.5,71.2,18.6z M69,20c0.3-0.3,0.5-0.8,0.5-1.4c0-0.6-0.2-1.1-0.5-1.3
		c-0.3-0.2-1-0.4-1.8-0.4H65v3.5h2.1C68,20.4,68.7,20.3,69,20z"/>
	<path id="XMLID_22_" class="st0" d="M84.7,23.9c-1,1-2.2,1.4-3.7,1.4s-2.7-0.5-3.7-1.4s-1.5-2.2-1.5-3.6s0.5-2.6,1.5-3.6
		c1-1,2.2-1.4,3.7-1.4s2.7,0.5,3.7,1.4c1,1,1.5,2.2,1.5,3.6S85.7,22.9,84.7,23.9z M83.5,17.8c-0.7-0.7-1.5-1-2.5-1s-1.8,0.3-2.5,1
		c-0.7,0.7-1,1.5-1,2.5s0.3,1.8,1,2.5c0.7,0.7,1.5,1,2.5,1s1.8-0.3,2.5-1c0.7-0.7,1-1.5,1-2.5S84.2,18.5,83.5,17.8z"/>
	<path id="XMLID_28_" class="st0" d="M94.7,25.2h-1.7v-3.9l-3.6-5.9h1.8l2.7,4.5l2.7-4.5h1.8l-3.6,5.9V25.2z"/>
	<path id="XMLID_30_" class="st0" d="M109.4,15.4V17h-5.2v2.6h4.7v1.5h-4.7v2.6h5.4v1.6h-7v-9.8H109.4z"/>
	<path id="XMLID_32_" class="st0" d="M119.1,23.7c0.6,0,1.1-0.1,1.5-0.3c0.4-0.2,0.8-0.5,1.3-0.9l1.1,1.1c-1,1.1-2.3,1.7-3.8,1.7
		c-1.5,0-2.7-0.5-3.7-1.4c-1-1-1.5-2.2-1.5-3.6c0-1.5,0.5-2.7,1.5-3.6s2.2-1.5,3.8-1.5s2.8,0.6,3.8,1.7L122,18
		c-0.5-0.4-0.9-0.8-1.3-0.9c-0.4-0.2-0.9-0.3-1.5-0.3c-1,0-1.8,0.3-2.5,1s-1,1.5-1,2.4c0,1,0.3,1.8,1,2.5
		C117.4,23.4,118.2,23.7,119.1,23.7z"/>
	<path id="XMLID_34_" class="st0" d="M131.6,17v8.3h-1.7V17h-3v-1.5h7.6V17H131.6z"/>
	<path id="XMLID_36_" class="st0" d="M141.5,23c0.4,0.5,1.1,0.8,1.8,0.8c0.8,0,1.4-0.3,1.8-0.8c0.4-0.5,0.7-1.2,0.7-2.1v-5.4h1.7
		v5.5c0,1.4-0.4,2.5-1.2,3.3c-0.8,0.8-1.8,1.1-3,1.1c-1.2,0-2.2-0.4-3-1.1s-1.2-1.8-1.2-3.3v-5.5h1.7v5.4
		C140.8,21.8,141,22.5,141.5,23z"/>
	<path id="XMLID_38_" class="st0" d="M154.1,23l-1,2.2h-1.8l4.3-9.8h1.8l4.3,9.8H160l-1-2.2H154.1z M158.4,21.5l-1.8-4l-1.8,4H158.4
		z"/>
	<path id="XMLID_41_" class="st0" d="M166.1,25.2v-9.8h1.7v8.2h4.5v1.6H166.1z"/>
</g>
</svg>
