<?xml version="1.0" encoding="utf-8"?>
<!-- Generator: Adobe Illustrator 16.0.0, SVG Export Plug-In . SVG Version: 6.00 Build 0)  -->
<!DOCTYPE svg PUBLIC "-//W3C//DTD SVG 1.1//EN" "http://www.w3.org/Graphics/SVG/1.1/DTD/svg11.dtd">
<svg version="1.1" id="Layer_1" xmlns="http://www.w3.org/2000/svg" xmlns:xlink="http://www.w3.org/1999/xlink" x="0px" y="0px"
	 width="120px" height="24px" viewBox="0 0 120 24" enable-background="new 0 0 120 24" xml:space="preserve">
<polygon fill="#FFFFFF" points="16.716,6.982 15.302,5.568 9.338,11.532 3.375,5.568 1.961,6.982 7.924,12.945 1.961,18.909 
	3.375,20.323 9.338,14.359 15.302,20.323 16.716,18.909 10.752,12.945 "/>
<polygon fill="#FFFFFF" points="60.707,2.924 59.293,1.51 49.867,10.936 49.797,11.143 49.867,11.35 59.293,20.775 60.707,19.361 
	52.488,11.143 "/>
<polygon fill="#FFFFFF" points="98.422,19.361 99.836,20.775 109.262,11.349 109.332,11.142 109.262,10.936 99.836,1.51 
	98.422,2.924 106.641,11.143 "/>
</svg>
